PathFileType	4	(X/Y/Z)	C:\Users\Basilio\Documents\Thesis Gigler\squatting_fais\c3dfiles\019\SLS_back_pre1\markers_experimental.trc
DataRate	CameraRate	NumFrames	NumMarkers	Units	OrigDataRate	OrigDataStartFrame	OrigNumFrames
200.000000	200.000000	4	59	mm	200.000000	1081	1442
Frame#	Time	LBHD			RBHD			C7			T10			CLAV			LSHO			LUUPA			LMUPA			LDUPA			LLEP			LMEP			LRAD			LUL			LRFIN			RSHO			RUPA1			RMUPA			RDUPA			RLEP			RMEP			RRAD			RUL			RUFIN			LASI			RASI			USACR			LSACR			RSACR			LTHI1			LTHI2			LTHI3			LTHI4			LLFC			LTIB1			LTIB2			LTIB3			LTIB4			LLMAL			LMMAL			LHEE			LMT1			LMT2			LMT5			RTHI2			RTHI4			RLFC			RTIB1			RTIB2			RTIB3			RTIB4			RLMAL			RMMAL			RHEE			RMT1			RMT2			RMT5			FHD			RTHI			RTHI3			
		X1	Y1	Z1	X2	Y2	Z2	X3	Y3	Z3	X4	Y4	Z4	X5	Y5	Z5	X6	Y6	Z6	X7	Y7	Z7	X8	Y8	Z8	X9	Y9	Z9	X10	Y10	Z10	X11	Y11	Z11	X12	Y12	Z12	X13	Y13	Z13	X14	Y14	Z14	X15	Y15	Z15	X16	Y16	Z16	X17	Y17	Z17	X18	Y18	Z18	X19	Y19	Z19	X20	Y20	Z20	X21	Y21	Z21	X22	Y22	Z22	X23	Y23	Z23	X24	Y24	Z24	X25	Y25	Z25	X26	Y26	Z26	X27	Y27	Z27	X28	Y28	Z28	X29	Y29	Z29	X30	Y30	Z30	X31	Y31	Z31	X32	Y32	Z32	X33	Y33	Z33	X34	Y34	Z34	X35	Y35	Z35	X36	Y36	Z36	X37	Y37	Z37	X38	Y38	Z38	X39	Y39	Z39	X40	Y40	Z40	X41	Y41	Z41	X42	Y42	Z42	X43	Y43	Z43	X44	Y44	Z44	X45	Y45	Z45	X46	Y46	Z46	X47	Y47	Z47	X48	Y48	Z48	X49	Y49	Z49	X50	Y50	Z50	X51	Y51	Z51	X52	Y52	Z52	X53	Y53	Z53	X54	Y54	Z54	X55	Y55	Z55	X56	Y56	Z56	X57	Y57	Z57	X58	Y58	Z58	X59	Y59	Z59	

1082	5.405	-215.3307189941407	1568.389038085938	-768.2381591796877	-225.4956359863282	1564.891967773438	-628.9039306640626	-280.5797729492188	1417.192749023438	-691.6231689453126	-409.659149169922	1162.941772460938	-706.1463623046876	-158.0372772216797	1334.84130859375	-697.3211059570314	-198.1492614746094	1413.120849609375	-820.0267333984377	-80.25477600097658	1369.639526367188	-877.7064208984377	-57.32160949707033	1357.998291015625	-836.2971801757815	-15.48708629608155	1356.359741210938	-879.8912353515627	51.13388061523439	1314.44775390625	-911.6064453125002	39.99952697753907	1257.58349609375	-897.655212402344	289.5380859375001	1308.881591796875	-827.3741455078127	296.4088745117188	1267.766723632813	-878.5739746093752	362.1130371093751	1324.195922851563	-828.7944335937502	-178.3103790283203	1406.971069335938	-579.8598632812501	-72.40146636962892	1331.299438476563	-478.3997802734376	-45.9112777709961	1357.233154296875	-513.0762939453126	-4.945465564727784	1321.373657226563	-484.2160644531251	70.85770416259767	1306.909301757813	-498.2258605957032	56.7015724182129	1252.413452148438	-512.9448852539064	309.4515380859376	1335.955810546875	-577.6118774414064	323.3045654296876	1294.165649414063	-530.4580078125001	389.290252685547	1350.425048828125	-571.1858520507814	-359.8705139160157	929.8441162109377	-847.5858154296877	-330.9031066894532	911.4468383789065	-647.0393676757814	-467.963592529297	1036.558227539063	-721.3026123046876	-487.8890991210939	1010.689636230469	-748.9274291992189	-478.5747375488282	1005.713256835938	-692.1898803710939	-406.3871459960939	700.3394775390626	-956.093933105469	-349.5926208496094	638.4065551757814	-973.716247558594	-304.9355468750001	648.7751464843751	-958.5093994140627	-360.1222534179688	577.1655273437501	-970.7439575195315	-351.1334228515626	497.2549133300782	-963.1932373046877	-441.2767639160157	401.0923767089845	-918.199645996094	-501.5113220214845	443.1818237304689	-965.6323852539065	-494.2022399902345	409.8172912597657	-940.6118774414065	-566.1472778320314	398.2357482910157	-893.0888671875002	-710.9553833007814	446.5246887207032	-905.575378417969	-685.0170288085939	439.7072143554689	-822.785583496094	-751.9183959960939	506.0727844238282	-852.9947509765627	-733.8056030273439	298.0365295410157	-812.7783813476565	-743.8108520507814	288.7902526855469	-849.5148925781252	-781.9230957031252	322.7990112304688	-898.4329223632815	-293.2468261718751	708.0230102539064	-582.2054443359376	-278.3101196289063	629.5180664062501	-584.8959960937501	-249.1138916015626	481.4128723144532	-632.9652709960939	-244.8699340820313	308.0660705566407	-707.9950561523439	-314.9497985839844	238.5979766845704	-657.4691772460939	-285.2004089355469	232.1248931884766	-693.2901611328126	-306.4710083007813	199.9189605712891	-736.8815917968751	-384.8800659179689	127.5940399169922	-696.3475952148439	-370.4152832031251	139.5716857910157	-773.2554931640627	-458.8528137207032	108.0492401123047	-751.9789428710939	-259.1755981445313	57.6746063232422	-783.2794189453127	-253.7242126464844	58.58026504516603	-737.5050659179689	-293.2025146484376	45.64373397827149	-682.7505493164064	-89.57975006103517	1584.627319335938	-620.4488525390626	-351.1999816894532	737.6222534179689	-568.9472656250001	-273.0002136230469	727.6729125976564	-602.3316040039064	
1083	5.41	-217.4073028564454	1571.26513671875	-768.2752075195315	-226.6761169433594	1567.481323242188	-628.7615966796876	-281.4219970703126	1419.70458984375	-691.5404663085939	-409.8145141601564	1164.81591796875	-706.3447875976564	-159.1944427490235	1337.593017578125	-697.9867553710939	-199.1575317382813	1415.652709960938	-819.9378051757815	-81.10489654541017	1372.1484375	-877.6190185546877	-58.31174468994142	1360.5087890625	-836.1658935546877	-16.38837051391602	1358.885131835938	-879.7531738281252	50.31890869140626	1316.885375976563	-911.4583740234377	39.16769027709962	1259.964721679688	-897.4487915039065	288.6667175292969	1311.518798828125	-827.2490844726565	295.6653442382813	1270.2265625	-878.3743286132815	361.5942077636719	1326.489501953125	-828.5765380859377	-183.5954132080078	1406.38330078125	-581.1163330078126	-73.47023010253908	1333.467529296875	-478.3472595214845	-46.66328430175782	1359.140380859375	-512.8200073242189	-5.990133285522462	1323.428466796875	-484.0391540527345	69.68911743164064	1308.731323242188	-497.9655151367189	55.56744766235353	1254.830932617188	-511.6374816894532	305.0866394042969	1339.921142578125	-580.3867797851564	322.2125244140626	1295.958251953125	-530.0554199218751	387.6007690429689	1352.70556640625	-570.5395507812501	-359.1836853027344	932.0610351562502	-847.9695434570315	-330.3348693847657	913.3198242187502	-647.1854858398439	-467.5932617187501	1038.128051757813	-721.5994262695314	-488.0091857910157	1012.59619140625	-749.1225585937501	-478.5958251953126	1007.627319335938	-692.5022583007814	-405.1233520507814	702.1848754882814	-956.510681152344	-348.2753601074219	640.2453002929689	-974.1121215820315	-303.6788940429688	650.7027587890626	-958.8623046875002	-359.0961608886719	579.2885131835939	-971.239929199219	-350.1361694335938	499.4016723632814	-963.6201171875002	-439.9651184082032	402.942596435547	-918.6745605468752	-500.3451232910157	445.0949096679689	-966.2277832031252	-492.7569580078126	411.5656738281251	-941.0494384765627	-564.7574462890626	399.835906982422	-893.555114746094	-709.5762939453126	447.8804931640626	-906.2832641601565	-683.8231201171876	441.2032470703126	-823.4296875000002	-750.4868774414064	507.6913452148439	-854.3782958984377	-732.5780029296876	299.5074462890626	-813.6298828125002	-742.4486694335939	290.1779785156251	-850.3020019531252	-780.4555664062502	324.2925109863282	-899.210144042969	-293.1578979492188	709.2164306640626	-581.9628906250001	-278.9552307128907	630.5226440429689	-585.0628662109376	-250.3702087402344	482.1082458496095	-632.8933715820314	-245.649642944336	308.6356506347657	-707.8554077148439	-315.6180114746094	239.0249633789063	-657.4852905273439	-285.7641906738282	232.4833068847657	-693.2200317382814	-306.7543640136719	200.242904663086	-736.8560180664064	-385.2354736328126	127.5731277465821	-696.6743164062501	-370.6336364746094	139.6585845947266	-773.3640136718752	-458.8565063476564	108.0542449951172	-752.0203247070314	-259.2065734863282	57.60874938964845	-783.2615356445315	-254.0929260253907	57.30067825317384	-737.9535522460939	-293.2427062988282	45.64499664306641	-682.7120971679689	-90.65299224853517	1587.201171875	-620.2322998046876	-351.0712280273438	738.8786621093751	-569.0172119140626	-272.8968811035157	728.5242309570314	-602.4228515625001	
1084	5.415	-218.1365051269532	1573.825317382813	-768.293884277344	-227.9517822265626	1570.271728515625	-628.5449218750001	-282.6563110351563	1421.928833007813	-691.5592651367189	-409.9122924804689	1166.641235351563	-706.5564575195314	-160.636215209961	1340.028442382813	-697.6311645507814	-199.9260711669922	1418.19287109375	-819.9615478515627	-81.93010711669923	1374.671630859375	-877.5930175781252	-58.96937179565431	1363.015625	-836.152526855469	-17.2954387664795	1361.349487304688	-879.6423339843752	49.44976043701173	1319.2978515625	-911.351013183594	38.26980590820313	1262.494995117188	-897.216247558594	287.2855834960938	1314.48291015625	-827.3537597656252	294.7543640136719	1272.629272460938	-878.144958496094	360.7138671875001	1329.083374023438	-828.5050048828127	-184.5898590087891	1408.97900390625	-580.9633789062501	-74.64267730712892	1335.577880859375	-478.296844482422	-48.17823410034181	1361.580688476563	-512.6136474609376	-7.150164127349855	1325.474243164063	-483.8965148925782	68.52742004394533	1310.800048828125	-497.705780029297	54.47669219970705	1256.759521484375	-511.5843811035157	307.2829589843751	1340.125854492188	-577.1105957031251	320.9701843261719	1297.704467773438	-530.0223999023439	386.6177978515626	1354.341186523438	-569.9964599609376	-357.9733886718751	934.0135498046877	-848.136901855469	-329.7425537109376	915.3108520507815	-647.3942260742189	-467.2872314453126	1040.037963867188	-721.8555908203126	-487.3304443359376	1014.302795410156	-749.5696411132814	-478.3259277343751	1009.170043945313	-692.7368164062501	-403.7883300781251	704.1427612304689	-956.845642089844	-347.0338439941407	642.1347656250001	-974.4343872070315	-302.5751342773438	652.7825317382814	-959.363464355469	-357.5924682617188	581.0286865234376	-971.6137695312502	-348.3768920898438	501.0465393066407	-963.9750976562502	-438.6038818359376	404.7683715820314	-919.141296386719	-499.3350830078126	446.9676208496095	-966.4765625000002	-491.2035217285157	413.1690063476564	-941.543884277344	-563.4590454101564	401.5534667968751	-894.2588500976565	-708.2857666015626	449.4713439941407	-906.9510498046877	-682.5012207031251	442.698455810547	-824.034362792969	-749.2246093750001	509.211151123047	-855.0671997070315	-731.1331787109376	301.0383300781251	-814.3707275390627	-741.1257324218751	291.7780456542969	-851.2769165039065	-778.956970214844	325.7910461425782	-899.9963989257815	-293.0923156738282	710.4920043945314	-581.3394775390626	-279.5182189941407	631.4302368164064	-585.1384887695314	-252.0557556152344	482.7655029296876	-632.6893920898439	-246.338851928711	309.0672607421876	-707.7175903320314	-316.3026428222657	239.4020538330079	-657.5794067382814	-286.2170410156251	232.8403320312501	-693.1648559570314	-307.1050415039063	200.5481567382813	-736.7114257812501	-385.1906127929689	127.7821960449219	-696.6564331054689	-370.6837768554688	139.6752471923828	-773.4285278320315	-458.787567138672	108.0202865600586	-752.0567626953126	-259.1604614257813	57.5657424926758	-783.2395019531252	-253.6871643066407	58.55480194091798	-737.5057373046876	-293.2024536132813	45.68997192382813	-682.7458496093751	-91.89430236816408	1589.755859375	-620.1043701171876	-350.9469604492188	740.3251953125001	-569.2523803710939	-272.7330322265626	729.3628540039064	-602.5399169921876	
1085	5.42	-219.3222045898438	1576.588500976563	-767.9226684570314	-229.0484924316407	1572.992919921875	-628.3953247070314	-283.4908752441407	1424.42822265625	-691.5531616210939	-410.0815429687501	1168.494750976563	-706.7268676757814	-161.4896697998047	1342.876220703125	-697.7213745117189	-201.1353912353516	1420.575927734375	-820.270690917969	-82.79101562500001	1377.221435546875	-877.5317382812502	-59.82087707519533	1365.559326171875	-835.9978637695315	-18.15581130981446	1363.884399414063	-879.5603027343752	48.5382537841797	1321.731201171875	-911.2962036132815	37.35871505737305	1264.983764648438	-897.0473632812502	286.9833374023438	1316.613403320313	-826.9991455078127	293.7652282714844	1275.12255859375	-877.9318847656252	359.8070373535157	1331.718994140625	-828.4609985351565	-185.6594543457032	1411.399780273438	-580.9047851562501	-75.73397827148439	1337.6552734375	-478.0209960937501	-48.91574478149415	1363.643310546875	-512.3899536132814	-8.256725311279299	1327.531005859375	-483.7504272460939	67.36208343505861	1312.677612304688	-497.7308959960939	53.16818237304689	1258.752685546875	-512.1040039062501	303.0404052734376	1343.65087890625	-579.6087036132814	319.8357849121094	1299.41796875	-529.6837158203126	386.0778808593751	1356.2373046875	-569.6976318359376	-357.2314147949219	936.176452636719	-848.3179321289065	-329.2475585937501	917.2838134765627	-647.4430541992189	-466.758026123047	1041.69873046875	-722.1876220703126	-486.9470520019532	1015.825927734375	-749.8727416992189	-478.0494384765626	1010.999633789063	-693.0347290039064	-402.6304016113282	706.2453002929689	-957.2307739257815	-345.9756469726563	644.3004150390626	-974.8164062500002	-301.2450561523438	654.6813964843751	-959.6507568359377	-356.3490600585938	582.9653930664064	-971.9931640625002	-347.0799255371094	503.0245056152345	-964.2930297851565	-437.1758117675782	406.4893493652345	-919.5281982421877	-494.5143432617189	447.1771240234376	-966.4050903320315	-489.995574951172	415.0440368652345	-942.1306152343752	-562.1546630859376	403.3426208496095	-894.9143676757815	-707.0313720703126	451.1488037109376	-907.6326293945315	-681.2175292968751	444.263641357422	-824.7151489257815	-748.1868896484376	510.8926391601564	-855.800476074219	-729.7998046875001	302.5983581542969	-815.1646728515627	-739.7980957031251	293.1392211914063	-851.9721679687502	-777.524597167969	327.3708496093751	-900.7406005859377	-293.4026794433594	711.1079101562501	-582.7206420898439	-279.8978576660157	632.2766113281251	-585.3674926757814	-253.4911041259766	483.4405212402345	-632.6594848632814	-247.1117095947266	309.6511230468751	-707.6693115234376	-316.9057312011719	239.7664031982422	-657.6265869140626	-286.7301330566407	233.1820983886719	-693.1211547851564	-307.4897155761719	200.8030090332032	-736.6908569335939	-385.5167541503907	127.7919616699219	-697.0192871093751	-370.8143615722657	139.6936645507813	-773.5125732421877	-458.8455810546876	108.0686721801758	-752.1160888671876	-259.2027587890626	57.47583007812501	-783.2941894531252	-253.9131164550782	57.35720825195314	-737.9593505859376	-293.2304687500001	45.66877365112305	-682.8093261718751	-93.14711761474611	1592.8408203125	-620.0888061523439	-350.8230590820313	741.5595703125001	-569.5413818359376	-272.7524108886719	730.2122192382814	-602.7565307617189	
